# xmcd
#
# Track frame offsets:
#	150
#	13354
#	29456
#	42676
#	54790
#	74348
#	89801
#	103445
#	121423
#	138336
#	153721
#	168796
#	182262
#	194325
#	205615
#	220674
#	228205
#	240825
#	260402
#	271956
#
# Disc length: 3877 seconds
#
# Revision: 1
# Processed by: cddbd v1.5.2PL0 Copyright (c) Steve Scherf et al.
# Submitted via: EasyCDDAExtractor 2010.6.0.0
#
DISCID=1b0f2314
DTITLE=Various Artist - That Loving Feeling
DYEAR=2004
DGENRE=Country
TTITLE0=Percy Sledge - When A Man Loves A Woman
TTITLE1=Ken Boothe - Everything I Own
TTITLE2=Three Degrees - When Will I See You Again
TTITLE3=Aaron Neville - Tell It Like It Is
TTITLE4=Al Jarreau - Lean On Me
TTITLE5=Jolene Parsons - Dont It Make My Brown Eyes Blue
TTITLE6=Love Affair - Everlasting Love (Live)
TTITLE7=Chi-Lites - Have You Seen Her
TTITLE8=Brook Benton - Rainy Night In Georgia
TTITLE9=Fortunes - You've Got Your Troubles
TTITLE10=Troggs - Love Is All Around
TTITLE11=Mary Wells - My Guy
TTITLE12=Danny Williams - Moon River
TTITLE13=Tommy Edwards - It's All In The Game
TTITLE14=The Platters - The Great Pretender
TTITLE15=Tony Bennett - This Can't Be Love
TTITLE16=Dobie Gray - Loving Arms
TTITLE17=Dee Harrington - Show Me Heaven
TTITLE18=Edison Lighthouse - Love Grows
TTITLE19=Cerise - Evergreen
EXTD=
EXTT0=
EXTT1=
EXTT2=
EXTT3=
EXTT4=
EXTT5=
EXTT6=
EXTT7=
EXTT8=
EXTT9=
EXTT10=
EXTT11=
EXTT12=
EXTT13=
EXTT14=
EXTT15=
EXTT16=
EXTT17=
EXTT18=
EXTT19=
PLAYORDER=
